<?xml version="1.0" encoding="UTF-8" standalone="no"?>
<svg
   xmlns:dc="http://purl.org/dc/elements/1.1/"
   xmlns:cc="http://creativecommons.org/ns#"
   xmlns:rdf="http://www.w3.org/1999/02/22-rdf-syntax-ns#"
   xmlns:svg="http://www.w3.org/2000/svg"
   xmlns="http://www.w3.org/2000/svg"
   id="svg8"
   version="1.1"
   viewBox="0 0 141.56334 81.669441"
   height="81.669441mm"
   width="141.56334mm">
  <defs
     id="defs2" />
  <metadata
     id="metadata5">
    <rdf:RDF>
      <cc:Work
         rdf:about="">
        <dc:format>image/svg+xml</dc:format>
        <dc:type
           rdf:resource="http://purl.org/dc/dcmitype/StillImage" />
        <dc:title></dc:title>
      </cc:Work>
    </rdf:RDF>
  </metadata>
  <g
     transform="translate(68.199347,-93.79169)"
     id="layer1">
    <flowRoot
       style="font-style:normal;font-weight:normal;font-size:40px;line-height:1.25;font-family:sans-serif;letter-spacing:0px;word-spacing:0px;fill:#000000;fill-opacity:1;stroke:none"
       id="flowRoot4718"
       xml:space="preserve"><flowRegion
         id="flowRegion4720"><rect
           y="267.51968"
           x="-326"
           height="130"
           width="520"
           id="rect4722" /></flowRegion><flowPara
         id="flowPara4724" /></flowRoot>    <g
       style="fill:#ffffff"
       id="g48">
      <path
         style="font-style:normal;font-variant:normal;font-weight:900;font-stretch:normal;font-size:125.64533234px;line-height:1.25;font-family:'Source Code Pro';-inkscape-font-specification:'Source Code Pro, Heavy';font-variant-ligatures:normal;font-variant-caps:normal;font-variant-numeric:normal;font-feature-settings:normal;text-align:start;letter-spacing:0px;word-spacing:0px;writing-mode:lr-tb;text-anchor:start;fill:#ffffff;fill-opacity:1;stroke:none;stroke-width:3.2588613"
         d="m -41.692093,93.79169 -26.358181,81.21055 c 5.869498,-4.61345 14.545346,-13.24849 29.216658,-21.80539 l 2.956931,-11.78584 1.352756,-5.65392 c 1.893382,-7.79001 4.192356,-17.59058 6.085738,-25.88318 h 0.541214 c 1.893381,8.2926 4.462685,18.09317 6.356066,25.88318 l 1.352202,5.65392 0.601842,2.39778 c 5.995638,-2.41666 12.6624171,-4.68076 20.09222256,-6.67659 L -13.561759,93.79169 Z m 43.7409932,48.09577 -20.4543302,6.63112 2.409598,9.60355 4.327488,17.33899 H 12.94549 Z m -42.0817532,16.08946 c -1.235776,0.6337 -2.430098,1.26335 -3.580469,1.88722 -3.386255,1.98496 -7.019899,4.10507 -10.478304,6.17017 -5.778012,3.66963 -10.231803,6.92319 -14.029846,9.39374 -0.0032,0.002 -0.0073,0.006 -0.01057,0.008 l -0.04227,-0.0517 -0.02503,0.0765 h 23.802848 l 4.32749,-17.33899 z m -21.404374,12.57598 c -1.775916,1.14053 -3.333005,2.18916 -4.481008,3.06079 1.390249,-0.9384 2.900239,-1.97859 4.481008,-3.06079 z"
         id="path4726" />
      <path
         style="font-style:normal;font-variant:normal;font-weight:900;font-stretch:normal;font-size:125.64533234px;line-height:1.25;font-family:'Source Code Pro';-inkscape-font-specification:'Source Code Pro, Heavy';font-variant-ligatures:normal;font-variant-caps:normal;font-variant-numeric:normal;font-feature-settings:normal;text-align:start;letter-spacing:0px;word-spacing:0px;writing-mode:lr-tb;text-anchor:start;fill:#ffffff;fill-opacity:1;stroke:none;stroke-width:3.2588613"
         d="m 67.90124,129.30115 c -11.599449,0.93463 -21.736115,2.19424 -30.687336,3.66128 L 9.2593392,163.90162 v 11.5595 H 73.363998 L 67.90124,158.62442 H 41.176505 Z m 0,0 -27.184741,0.0863 -0.351537,0.0873 z"
         id="path4728" />
      <path
         style="fill:#ffffff;stroke:none;stroke-width:0.27450123px;stroke-linecap:butt;stroke-linejoin:miter;stroke-opacity:1"
         d="m 67.901241,129.30115 c -50.253841,0.0361 -91.353181,8.32172 -136.100588,46.15998 23.344979,-55.59024 90.838504,-62.96622 136.100588,-63.09331 z"
         id="path4752" />
    </g>
  </g>
</svg>
